<svg width="60" height="60" viewBox="0 0 60 60" fill="none" xmlns="http://www.w3.org/2000/svg">
<circle cx="30" cy="30" r="29" fill="#FAE7E9" stroke="#681E28" stroke-width="2"/>
<path d="M14 32.5H47C47.2761 32.5 47.5 32.7239 47.5 33V40C47.5 43.0376 45.0376 45.5 42 45.5H19C15.9624 45.5 13.5 43.0376 13.5 40V33C13.5 32.7239 13.7239 32.5 14 32.5Z" stroke="#681E28"/>
<path d="M14 33C22 39.6667 39 39.6667 47 33" stroke="#681E28"/>
<path d="M15 22C16.3194 20.4908 20.0667 18.3778 24.5 22C28.9333 25.6222 32.6806 23.5092 34 22" stroke="#681E28"/>
<circle cx="19" cy="26" r="2" fill="#681E28"/>
<circle cx="30" cy="18" r="2" fill="#681E28"/>
<path d="M45.8905 16.0001L30 30.6624L30.3828 31.0773C32.2554 33.1067 35.4187 33.2339 37.4482 31.3613L49.664 20.0897" stroke="#681E28"/>
<circle cx="18" cy="40" r="1" fill="#681E28"/>
<circle cx="20" cy="38" r="1" fill="#681E28"/>
<circle cx="21" cy="44" r="1" fill="#681E28"/>
<circle cx="24" cy="40" r="1" fill="#681E28"/>
<circle cx="28" cy="44" r="1" fill="#681E28"/>
<circle cx="31" cy="40" r="1" fill="#681E28"/>
<circle cx="35" cy="44" r="1" fill="#681E28"/>
<circle cx="38" cy="40" r="1" fill="#681E28"/>
<circle cx="42" cy="44" r="1" fill="#681E28"/>
<circle cx="45" cy="40" r="1" fill="#681E28"/>
<circle cx="42" cy="38" r="1" fill="#681E28"/>
<circle cx="41" cy="41" r="1" fill="#681E28"/>
<circle cx="39" cy="43" r="1" fill="#681E28"/>
<circle cx="35" cy="41" r="1" fill="#681E28"/>
<circle cx="32" cy="43" r="1" fill="#681E28"/>
<circle cx="28" cy="41" r="1" fill="#681E28"/>
<circle cx="25" cy="43" r="1" fill="#681E28"/>
<circle cx="21" cy="41" r="1" fill="#681E28"/>
<circle cx="17" cy="43" r="1" fill="#681E28"/>
<circle cx="16" cy="37" r="1" fill="#681E28"/>
<circle cx="20" cy="35" r="1" fill="#681E28"/>
<circle cx="24" cy="35" r="1" fill="#681E28"/>
<circle cx="27" cy="37" r="1" fill="#681E28"/>
<circle cx="33" cy="35" r="1" fill="#681E28"/>
<circle cx="32" cy="37" r="1" fill="#681E28"/>
<circle cx="36" cy="36" r="1" fill="#681E28"/>
<circle cx="39" cy="35" r="1" fill="#681E28"/>
<circle cx="44" cy="34" r="1" fill="#681E28"/>
<circle cx="42" cy="35" r="1" fill="#681E28"/>
<circle cx="29" cy="34" r="1" fill="#681E28"/>
<circle cx="46" cy="36" r="1" fill="#681E28"/>
<path d="M34.5 26.5C35.3333 27.5 36.1 30.1 32.5 32.5" stroke="#681E28"/>
</svg>
